<?xml version="1.0" encoding="UTF-8"?>
<svg width="200px" height="200px" viewBox="0 0 200 200" version="1.1" xmlns="http://www.w3.org/2000/svg" xmlns:xlink="http://www.w3.org/1999/xlink">
    <title>Collaboration</title>
    <g stroke="none" stroke-width="1" fill="none" fill-rule="evenodd">
        <circle fill="#FFFFFF" opacity="0.1" cx="100" cy="100" r="100"></circle>
        <g transform="translate(40, 40)" stroke="#FFFFFF" stroke-width="2">
            <rect x="0" y="0" width="120" height="80" rx="4"></rect>
            <line x1="0" y1="20" x2="120" y2="20" stroke-linecap="round"></line>
            <circle cx="10" cy="10" r="3" fill="#FFFFFF"></circle>
            <circle cx="20" cy="10" r="3" fill="#FFFFFF"></circle>
            <circle cx="30" cy="10" r="3" fill="#FFFFFF"></circle>
            <line x1="10" y1="40" x2="50" y2="40" stroke-linecap="round"></line>
            <line x1="10" y1="50" x2="70" y2="50" stroke-linecap="round"></line>
            <line x1="10" y1="60" x2="60" y2="60" stroke-linecap="round"></line>
            <g transform="translate(80, 40)">
                <circle cx="10" cy="10" r="10" fill="rgba(255,255,255,0.2)"></circle>
                <path d="M5,10 L8,13 L15,7" stroke-linecap="round" stroke-linejoin="round"></path>
            </g>
        </g>
        <g transform="translate(30, 130)" stroke="#FFFFFF" stroke-width="2">
            <circle cx="15" cy="15" r="15" fill="rgba(255,255,255,0.2)"></circle>
            <circle cx="55" cy="15" r="15" fill="rgba(255,255,255,0.2)"></circle>
            <circle cx="95" cy="15" r="15" fill="rgba(255,255,255,0.2)"></circle>
            <line x1="30" y1="15" x2="40" y2="15" stroke-linecap="round"></line>
            <line x1="70" y1="15" x2="80" y2="15" stroke-linecap="round"></line>
        </g>
    </g>
</svg>
